<mxfile host="Electron" agent="Mozilla/5.0 (Windows NT 10.0; Win64; x64) AppleWebKit/537.36 (KHTML, like Gecko) draw.io/26.2.15 Chrome/134.0.6998.205 Electron/35.2.1 Safari/537.36" version="26.2.15">
  <diagram name="Page-1" id="zlWNSXtMoy9rusxttmJT">
    <mxGraphModel dx="786" dy="524" grid="1" gridSize="10" guides="1" tooltips="1" connect="1" arrows="1" fold="1" page="1" pageScale="1" pageWidth="850" pageHeight="1100" math="0" shadow="0">
      <root>
        <mxCell id="0" />
        <mxCell id="1" parent="0" />
        <mxCell id="-SEFGKDfxOVD3mIa68dv-10" style="edgeStyle=orthogonalEdgeStyle;rounded=0;orthogonalLoop=1;jettySize=auto;html=1;entryX=0.5;entryY=0;entryDx=0;entryDy=0;" parent="1" source="-SEFGKDfxOVD3mIa68dv-1" target="-SEFGKDfxOVD3mIa68dv-2" edge="1">
          <mxGeometry relative="1" as="geometry" />
        </mxCell>
        <mxCell id="-SEFGKDfxOVD3mIa68dv-1" value="Mulai" style="rounded=1;whiteSpace=wrap;html=1;" parent="1" vertex="1">
          <mxGeometry x="350" y="130" width="120" height="30" as="geometry" />
        </mxCell>
        <mxCell id="-SEFGKDfxOVD3mIa68dv-11" style="edgeStyle=orthogonalEdgeStyle;rounded=0;orthogonalLoop=1;jettySize=auto;html=1;entryX=0.5;entryY=0;entryDx=0;entryDy=0;" parent="1" source="-SEFGKDfxOVD3mIa68dv-2" target="-SEFGKDfxOVD3mIa68dv-4" edge="1">
          <mxGeometry relative="1" as="geometry" />
        </mxCell>
        <mxCell id="-SEFGKDfxOVD3mIa68dv-2" value="V&amp;nbsp;← [input( V&lt;sub&gt;i&amp;nbsp;&lt;/sub&gt;) for i in range(5)]&lt;div&gt;U ← [input( U&lt;sub&gt;i&amp;nbsp;&lt;/sub&gt;) for i in range(5)]&lt;/div&gt;&lt;div&gt;W&amp;nbsp;← [0 for i in range(5)]&lt;/div&gt;&lt;div&gt;i&amp;nbsp;← 0&lt;/div&gt;" style="rounded=0;whiteSpace=wrap;html=1;" parent="1" vertex="1">
          <mxGeometry x="310" y="190" width="200" height="80" as="geometry" />
        </mxCell>
        <mxCell id="-SEFGKDfxOVD3mIa68dv-12" style="edgeStyle=orthogonalEdgeStyle;rounded=0;orthogonalLoop=1;jettySize=auto;html=1;entryX=0.5;entryY=0;entryDx=0;entryDy=0;" parent="1" source="-SEFGKDfxOVD3mIa68dv-4" target="-SEFGKDfxOVD3mIa68dv-5" edge="1">
          <mxGeometry relative="1" as="geometry" />
        </mxCell>
        <mxCell id="-SEFGKDfxOVD3mIa68dv-16" value="T" style="edgeLabel;html=1;align=center;verticalAlign=middle;resizable=0;points=[];" parent="-SEFGKDfxOVD3mIa68dv-12" vertex="1" connectable="0">
          <mxGeometry x="-0.12" y="2" relative="1" as="geometry">
            <mxPoint x="-12" as="offset" />
          </mxGeometry>
        </mxCell>
        <mxCell id="-SEFGKDfxOVD3mIa68dv-14" style="edgeStyle=orthogonalEdgeStyle;rounded=0;orthogonalLoop=1;jettySize=auto;html=1;exitX=0;exitY=0.5;exitDx=0;exitDy=0;entryX=1;entryY=0.5;entryDx=0;entryDy=0;" parent="1" source="-SEFGKDfxOVD3mIa68dv-4" target="-SEFGKDfxOVD3mIa68dv-8" edge="1">
          <mxGeometry relative="1" as="geometry" />
        </mxCell>
        <mxCell id="-SEFGKDfxOVD3mIa68dv-17" value="F" style="edgeLabel;html=1;align=center;verticalAlign=middle;resizable=0;points=[];" parent="-SEFGKDfxOVD3mIa68dv-14" vertex="1" connectable="0">
          <mxGeometry x="-0.1692" y="2" relative="1" as="geometry">
            <mxPoint x="12" y="-17" as="offset" />
          </mxGeometry>
        </mxCell>
        <mxCell id="-SEFGKDfxOVD3mIa68dv-4" value="i &amp;lt; 5" style="rhombus;whiteSpace=wrap;html=1;" parent="1" vertex="1">
          <mxGeometry x="375" y="310" width="70" height="70" as="geometry" />
        </mxCell>
        <mxCell id="-SEFGKDfxOVD3mIa68dv-13" style="edgeStyle=orthogonalEdgeStyle;rounded=0;orthogonalLoop=1;jettySize=auto;html=1;exitX=1;exitY=0.5;exitDx=0;exitDy=0;entryX=1;entryY=0.5;entryDx=0;entryDy=0;" parent="1" source="-SEFGKDfxOVD3mIa68dv-5" target="-SEFGKDfxOVD3mIa68dv-4" edge="1">
          <mxGeometry relative="1" as="geometry" />
        </mxCell>
        <mxCell id="-SEFGKDfxOVD3mIa68dv-5" value="W[i]&amp;nbsp;← V[i] + U[i]&lt;div&gt;i&amp;nbsp;← i + 1&lt;/div&gt;" style="rounded=0;whiteSpace=wrap;html=1;" parent="1" vertex="1">
          <mxGeometry x="350" y="430" width="120" height="50" as="geometry" />
        </mxCell>
        <mxCell id="-SEFGKDfxOVD3mIa68dv-15" style="edgeStyle=orthogonalEdgeStyle;rounded=0;orthogonalLoop=1;jettySize=auto;html=1;entryX=0.5;entryY=0;entryDx=0;entryDy=0;" parent="1" source="-SEFGKDfxOVD3mIa68dv-8" target="-SEFGKDfxOVD3mIa68dv-9" edge="1">
          <mxGeometry relative="1" as="geometry" />
        </mxCell>
        <mxCell id="-SEFGKDfxOVD3mIa68dv-8" value="output(W)" style="shape=parallelogram;perimeter=parallelogramPerimeter;whiteSpace=wrap;html=1;fixedSize=1;" parent="1" vertex="1">
          <mxGeometry x="200" y="325" width="120" height="40" as="geometry" />
        </mxCell>
        <mxCell id="-SEFGKDfxOVD3mIa68dv-9" value="Selesai" style="rounded=1;whiteSpace=wrap;html=1;" parent="1" vertex="1">
          <mxGeometry x="200" y="425" width="120" height="35" as="geometry" />
        </mxCell>
        <mxCell id="-SEFGKDfxOVD3mIa68dv-18" value="" style="rounded=0;whiteSpace=wrap;html=1;fillColor=#008a00;fontColor=#ffffff;strokeColor=#005700;opacity=20;" parent="1" vertex="1">
          <mxGeometry x="340" y="290" width="160" height="200" as="geometry" />
        </mxCell>
      </root>
    </mxGraphModel>
  </diagram>
</mxfile>
